<?xml version="1.0" encoding="UTF-8" standalone="no"?><svg xmlns="http://www.w3.org/2000/svg" xmlns:xlink="http://www.w3.org/1999/xlink" contentScriptType="application/ecmascript" contentStyleType="text/css" height="843px" preserveAspectRatio="none" style="width:1445px;height:843px;" version="1.1" viewBox="0 0 1445 843" width="1445px" zoomAndPan="magnify"><defs/><g><!--MD5=[d2242131270c237e071fd8738247fbb8]
cluster FE--><rect fill="#FFFFFF" height="193" style="stroke: #000000; stroke-width: 1.5;" width="602" x="313" y="201.56"/><text fill="#000000" font-family="Arial" font-size="14" font-weight="bold" lengthAdjust="spacingAndGlyphs" textLength="186" x="521" y="216.5551">Frontend (Vite + React)</text><!--MD5=[43a3fb635c12febb4cb7028741c09213]
cluster BE--><rect fill="#FFFFFF" height="193" style="stroke: #000000; stroke-width: 1.5;" width="520" x="752" y="485.56"/><text fill="#000000" font-family="Arial" font-size="14" font-weight="bold" lengthAdjust="spacingAndGlyphs" textLength="228" x="898" y="500.5551">Backend (Node.js + Express)</text><!--MD5=[e169ac431914a6adb8cf110c9da1459f]
cluster DB--><path d="M1115,41.56 C1115,31.56 1274,31.56 1274,31.56 C1274,31.56 1433,31.56 1433,41.56 L1433,300.56 C1433,310.56 1274,310.56 1274,310.56 C1274,310.56 1115,310.56 1115,300.56 L1115,41.56 " fill="#FFFFFF" style="stroke: #000000; stroke-width: 1.5;"/><path d="M1115,41.56 C1115,51.56 1274,51.56 1274,51.56 C1274,51.56 1433,51.56 1433,41.56 " fill="none" style="stroke: #000000; stroke-width: 1.5;"/><text fill="#000000" font-family="Arial" font-size="14" font-weight="bold" lengthAdjust="spacingAndGlyphs" textLength="93" x="1227.5" y="66.5551">PostgreSQL</text><!--MD5=[f3afb7c7153c452f0cbe69ca54ff8039]
entity Home Page--><rect fill="#FEFECE" height="36.2969" style="stroke: #A80036; stroke-width: 1.5;" width="100" x="342.5" y="244.56"/><rect fill="#FEFECE" height="5" style="stroke: #A80036; stroke-width: 1.5;" width="10" x="337.5" y="249.56"/><rect fill="#FEFECE" height="5" style="stroke: #A80036; stroke-width: 1.5;" width="10" x="337.5" y="270.8569"/><text fill="#000000" font-family="Arial" font-size="14" lengthAdjust="spacingAndGlyphs" textLength="80" x="352.5" y="267.5551">Home Page</text><!--MD5=[ec2ce5c0dafd7b4444a7d6ce1841cc99]
entity Results Page--><rect fill="#FEFECE" height="36.2969" style="stroke: #A80036; stroke-width: 1.5;" width="111" x="337" y="315.56"/><rect fill="#FEFECE" height="5" style="stroke: #A80036; stroke-width: 1.5;" width="10" x="332" y="320.56"/><rect fill="#FEFECE" height="5" style="stroke: #A80036; stroke-width: 1.5;" width="10" x="332" y="341.8569"/><text fill="#000000" font-family="Arial" font-size="14" lengthAdjust="spacingAndGlyphs" textLength="91" x="347" y="338.5551">Results Page</text><!--MD5=[537e9a0afc17ad425cd1308d4189e2d2]
entity Auth Context--><rect fill="#FEFECE" height="36.2969" style="stroke: #A80036; stroke-width: 1.5;" width="110" x="781" y="244.56"/><rect fill="#FEFECE" height="5" style="stroke: #A80036; stroke-width: 1.5;" width="10" x="776" y="249.56"/><rect fill="#FEFECE" height="5" style="stroke: #A80036; stroke-width: 1.5;" width="10" x="776" y="270.8569"/><text fill="#000000" font-family="Arial" font-size="14" lengthAdjust="spacingAndGlyphs" textLength="90" x="791" y="267.5551">Auth Context</text><!--MD5=[b5fe6cab5fe50137cd55aa68f4478e1f]
entity Auth Routes--><rect fill="#FEFECE" height="36.2969" style="stroke: #A80036; stroke-width: 1.5;" width="106" x="783" y="618.56"/><rect fill="#FEFECE" height="5" style="stroke: #A80036; stroke-width: 1.5;" width="10" x="778" y="623.56"/><rect fill="#FEFECE" height="5" style="stroke: #A80036; stroke-width: 1.5;" width="10" x="778" y="644.8569"/><text fill="#000000" font-family="Arial" font-size="14" lengthAdjust="spacingAndGlyphs" textLength="86" x="793" y="641.5551">Auth Routes</text><!--MD5=[e3e9f6a9871873306d98b4a057ec4509]
entity Pricing Routes--><rect fill="#FEFECE" height="36.2969" style="stroke: #A80036; stroke-width: 1.5;" width="120" x="776" y="547.56"/><rect fill="#FEFECE" height="5" style="stroke: #A80036; stroke-width: 1.5;" width="10" x="771" y="552.56"/><rect fill="#FEFECE" height="5" style="stroke: #A80036; stroke-width: 1.5;" width="10" x="771" y="573.8569"/><text fill="#000000" font-family="Arial" font-size="14" lengthAdjust="spacingAndGlyphs" textLength="100" x="786" y="570.5551">Pricing Routes</text><!--MD5=[f7ab58c068a7e69772062bf0d107c095]
entity Orders Routes--><rect fill="#FEFECE" height="36.2969" style="stroke: #A80036; stroke-width: 1.5;" width="121" x="1127" y="618.56"/><rect fill="#FEFECE" height="5" style="stroke: #A80036; stroke-width: 1.5;" width="10" x="1122" y="623.56"/><rect fill="#FEFECE" height="5" style="stroke: #A80036; stroke-width: 1.5;" width="10" x="1122" y="644.8569"/><text fill="#000000" font-family="Arial" font-size="14" lengthAdjust="spacingAndGlyphs" textLength="101" x="1137" y="641.5551">Orders Routes</text><!--MD5=[3791f6296a6b732ad7467345b72f2f00]
entity Admin Routes--><rect fill="#FEFECE" height="36.2969" style="stroke: #A80036; stroke-width: 1.5;" width="117" x="1129" y="547.56"/><rect fill="#FEFECE" height="5" style="stroke: #A80036; stroke-width: 1.5;" width="10" x="1124" y="552.56"/><rect fill="#FEFECE" height="5" style="stroke: #A80036; stroke-width: 1.5;" width="10" x="1124" y="573.8569"/><text fill="#000000" font-family="Arial" font-size="14" lengthAdjust="spacingAndGlyphs" textLength="97" x="1139" y="570.5551">Admin Routes</text><!--MD5=[5f2f9dbbee692058d60489180693f774]
entity users--><rect fill="#FEFECE" height="36.2969" style="stroke: #A80036; stroke-width: 1.5;" width="59" x="1158" y="231.56"/><rect fill="#FEFECE" height="5" style="stroke: #A80036; stroke-width: 1.5;" width="10" x="1153" y="236.56"/><rect fill="#FEFECE" height="5" style="stroke: #A80036; stroke-width: 1.5;" width="10" x="1153" y="257.8569"/><text fill="#000000" font-family="Arial" font-size="14" lengthAdjust="spacingAndGlyphs" textLength="39" x="1168" y="254.5551">users</text><!--MD5=[44956e9819935f02a598a5f34a2c49c0]
entity price_list--><rect fill="#FEFECE" height="36.2969" style="stroke: #A80036; stroke-width: 1.5;" width="80" x="1147.5" y="160.56"/><rect fill="#FEFECE" height="5" style="stroke: #A80036; stroke-width: 1.5;" width="10" x="1142.5" y="165.56"/><rect fill="#FEFECE" height="5" style="stroke: #A80036; stroke-width: 1.5;" width="10" x="1142.5" y="186.8569"/><text fill="#000000" font-family="Arial" font-size="14" lengthAdjust="spacingAndGlyphs" textLength="60" x="1157.5" y="183.5551">price_list</text><!--MD5=[7c512f0ef3dab807bd226b7f83d85d53]
entity quote_logs--><rect fill="#FEFECE" height="36.2969" style="stroke: #A80036; stroke-width: 1.5;" width="97" x="1139" y="89.56"/><rect fill="#FEFECE" height="5" style="stroke: #A80036; stroke-width: 1.5;" width="10" x="1134" y="94.56"/><rect fill="#FEFECE" height="5" style="stroke: #A80036; stroke-width: 1.5;" width="10" x="1134" y="115.8569"/><text fill="#000000" font-family="Arial" font-size="14" lengthAdjust="spacingAndGlyphs" textLength="77" x="1149" y="112.5551">quote_logs</text><!--MD5=[1f8d078c60165442005a4c1581b11ffa]
entity orders--><rect fill="#FEFECE" height="36.2969" style="stroke: #A80036; stroke-width: 1.5;" width="65" x="1335.5" y="231.56"/><rect fill="#FEFECE" height="5" style="stroke: #A80036; stroke-width: 1.5;" width="10" x="1330.5" y="236.56"/><rect fill="#FEFECE" height="5" style="stroke: #A80036; stroke-width: 1.5;" width="10" x="1330.5" y="257.8569"/><text fill="#000000" font-family="Arial" font-size="14" lengthAdjust="spacingAndGlyphs" textLength="45" x="1345.5" y="254.5551">orders</text><!--MD5=[1e15c1ccefcba62efb312cf5fde5e8a9]
entity buildings--><rect fill="#FEFECE" height="36.2969" style="stroke: #A80036; stroke-width: 1.5;" width="82" x="1327" y="160.56"/><rect fill="#FEFECE" height="5" style="stroke: #A80036; stroke-width: 1.5;" width="10" x="1322" y="165.56"/><rect fill="#FEFECE" height="5" style="stroke: #A80036; stroke-width: 1.5;" width="10" x="1322" y="186.8569"/><text fill="#000000" font-family="Arial" font-size="14" lengthAdjust="spacingAndGlyphs" textLength="62" x="1337" y="183.5551">buildings</text><!--MD5=[8fc3522a43f8c7199df5e09e5bb0188e]
entity user--><ellipse cx="22" cy="357.06" fill="#FEFECE" rx="8" ry="8" style="stroke: #A80036; stroke-width: 1.5;"/><path d="M22,365.06 L22,392.06 M9,373.06 L35,373.06 M22,392.06 L9,407.06 M22,392.06 L35,407.06 " fill="none" style="stroke: #A80036; stroke-width: 1.5;"/><text fill="#000000" font-family="Arial" font-size="14" lengthAdjust="spacingAndGlyphs" textLength="32" x="6" y="422.5551">User</text><!--MD5=[52bb74e2ef528211db78d89d6acc3642]
entity NGINX--><path d="M811.0949,711.5625 C813.4559,705.4634 819.1645,704.2645 823.2344,709.7758 C826.8758,701.881 831.116,700.8652 837.0803,707.5733 C841.3929,702.5526 847.1148,703.137 849.5918,709.5772 C854.1555,704.2272 859.4581,705.9516 862.0613,711.7667 C869.7778,713.9629 872.9459,720.9371 865.8015,726.8246 C871.7663,732.1368 871.5835,738.5686 863.605,741.8413 C861.0481,749.9894 855.9278,750.7532 849.7131,745.6866 C847.9015,752.7402 842.7965,752.8339 838.1711,748.5515 C833.0942,753.6823 826.1217,753.5471 823.8737,745.4855 C819.0728,751.5592 813.4492,748.3569 811.4313,742.5667 C802.9312,740.0399 802.2998,733.8927 807.5049,727.7372 C800.8642,721.8522 803.4472,714.2761 811.0949,711.5625 " fill="#FEFECE" style="stroke: #000000; stroke-width: 1.5;"/><text fill="#000000" font-family="Arial" font-size="14" lengthAdjust="spacingAndGlyphs" textLength="38" x="817" y="730.5551">Nginx</text><!--MD5=[a3e12a16478f4687ec6bc558b004a0a5]
link user to FE--><path d="M38.36,386.56 C72.96,386.56 160.1425,386.56 239.22,386.56 C258.9894,386.56 278.2522,386.56 296.0602,386.56 C300.5122,386.56 304.8733,386.56 309.1286,386.56 C310.1924,386.56 311.2497,386.56 312.3001,386.56 " fill="none" id="user-&gt;FE" style="stroke: #A80036; stroke-width: 1.0;"/><polygon fill="#A80036" points="312.3001,386.56,303.3001,382.56,307.3001,386.56,303.3001,390.56,312.3001,386.56" style="stroke: #A80036; stroke-width: 1.0;"/><text fill="#000000" font-family="Arial" font-size="13" lengthAdjust="spacingAndGlyphs" textLength="219" x="69" y="382.6269">Search location + input bandwidth</text><!--MD5=[e838ab86c9c1328aa549526caa0497a3]
link FE to NGINX--><path d="M394.0463,394.9838 C394.0613,395.2011 394.0767,395.4224 394.0923,395.6475 C394.2174,397.4488 394.3632,399.4987 394.5305,401.78 C395.1995,410.9052 396.2125,423.732 397.6244,439.1497 C400.4481,469.985 404.8675,511.1838 411.3225,553.86 C424.2325,639.2125 445.285,730.475 478,756.56 C571.46,831.09 725.73,776.28 796.88,744.3 " fill="none" id="FE-&gt;NGINX" style="stroke: #A80036; stroke-width: 1.0;"/><polygon fill="#A80036" points="801.86,742.04,792.0114,742.1088,797.3052,744.1025,795.3114,749.3964,801.86,742.04" style="stroke: #A80036; stroke-width: 1.0;"/><text fill="#000000" font-family="Arial" font-size="13" lengthAdjust="spacingAndGlyphs" textLength="94" x="556" y="752.6269">HTTPS request</text><!--MD5=[243f9d93f90b91cba7813afbab05be8e]
link NGINX to BE--><path d="M801.89,714.49 C727.36,688.59 561.43,620.64 624,547.06 C653.955,511.84 704.63,502.645 748.925,502.5275 C749.6171,502.5257 750.3077,502.526 750.9966,502.5286 " fill="none" id="NGINX-&gt;BE" style="stroke: #A80036; stroke-width: 1.0;"/><polygon fill="#A80036" points="750.9966,502.5286,742.0113,498.4955,745.9966,502.5102,741.9819,506.4955,750.9966,502.5286" style="stroke: #A80036; stroke-width: 1.0;"/><text fill="#000000" font-family="Arial" font-size="13" lengthAdjust="spacingAndGlyphs" textLength="34" x="586" y="560.1269">/api/*</text><!--MD5=[c84acc1e0ff5dab9d481bc9a32c73af7]
link FE to BE--><path d="M393.6627,394.58 C393.6678,394.7264 393.6731,394.8745 393.6786,395.0245 C393.8531,399.8244 394.1968,406.4819 394.8723,414.515 C396.2234,430.5813 398.9019,452.15 404.2088,475.365 C414.8225,521.795 435.95,574.81 478,603.56 C523.86,634.92 686.6,640.62 728,603.56 C740,592.83 725.07,543.39 736,531.56 C739.7413,527.5113 744.0608,524.1713 748.7596,521.4269 C749.347,521.0838 749.9403,520.7501 750.5391,520.4254 C750.8385,520.2631 751.1393,520.1031 751.4414,519.9452 C751.5925,519.8663 751.7439,519.788 751.8956,519.7102 " fill="none" id="FE-&gt;BE" style="stroke: #A80036; stroke-width: 1.0;"/><polygon fill="#A80036" points="751.8956,519.7102,742.0619,520.2567,747.4463,521.9913,745.7117,527.3756,751.8956,519.7102" style="stroke: #A80036; stroke-width: 1.0;"/><text fill="#000000" font-family="Arial" font-size="13" lengthAdjust="spacingAndGlyphs" textLength="185" x="510.5" y="584.6269">GET /api/pricing/public/pricing</text><text fill="#000000" font-family="Arial" font-size="13" lengthAdjust="spacingAndGlyphs" textLength="248" x="479" y="599.7597">?service_type&amp;zone&amp;bandwidth_mbps</text><!--MD5=[3e68418683ab4be64727e3935637485c]
link BE to FE--><path d="M807.3613,485.2031 C805.1126,483.1681 802.7548,481.0759 800.2987,478.9475 C780.65,461.92 754.71,442.57 728,431.56 C693.8675,417.4975 656.2769,407.6313 618.9972,400.7477 C609.6773,399.0268 600.3768,397.4923 591.1546,396.1252 C588.8491,395.7835 586.5484,395.4522 584.2536,395.1311 C583.1062,394.9705 581.9602,394.8125 580.8158,394.657 " fill="none" id="BE-&gt;FE" style="stroke: #A80036; stroke-width: 1.0;"/><polygon fill="#A80036" points="580.8158,394.657,589.1952,399.8324,585.7703,395.3303,590.2725,391.9053,580.8158,394.657" style="stroke: #A80036; stroke-width: 1.0;"/><text fill="#000000" font-family="Arial" font-size="13" lengthAdjust="spacingAndGlyphs" textLength="78" x="564" y="382.6269">JSON pricing</text><!--MD5=[c84acc1e0ff5dab9d481bc9a32c73af7]
link FE to BE--><path d="M393.0225,394.7955 C392.993,395.456 392.9636,396.1531 392.9348,396.8857 C392.7043,402.7466 392.5105,410.8785 392.5998,420.6977 C392.7784,440.3359 394.0894,466.7231 398.5037,495.1888 C407.3325,552.12 428.575,617.365 478,653.56 C522.82,686.39 687.45,691.54 728,653.56 C747.83,634.99 718.02,551.93 736,531.56 C739.6488,527.4275 743.8984,524.0244 748.5459,521.2337 C749.1269,520.8849 749.714,520.5456 750.307,520.2157 C750.6035,520.0507 750.9014,519.8881 751.2008,519.7278 C751.3504,519.6476 751.5005,519.568 751.6508,519.489 " fill="none" id="FE-&gt;BE-1" style="stroke: #A80036; stroke-width: 1.0;"/><polygon fill="#A80036" points="751.6508,519.489,741.8231,520.1343,747.2247,521.8147,745.5443,527.2162,751.6508,519.489" style="stroke: #A80036; stroke-width: 1.0;"/><text fill="#000000" font-family="Arial" font-size="13" lengthAdjust="spacingAndGlyphs" textLength="128" x="539" y="649.6269">POST /api/auth/login</text><!--MD5=[3e68418683ab4be64727e3935637485c]
link BE to FE--><path d="M751.8218,493.1117 C751.4394,493.0336 751.0569,492.9558 750.6745,492.8781 C749.1448,492.5676 747.6153,492.2604 746.088,491.9574 C739.9791,490.7453 733.9063,489.5988 728,488.56 C617.67,469.17 580.75,501.17 478,456.56 C456.33,447.155 435.8275,430.4375 420.4463,415.6988 C412.7556,408.3294 406.3453,401.4547 401.7095,396.2361 C401.4198,395.9099 401.137,395.5902 400.8612,395.2773 C400.7234,395.1208 400.5872,394.966 400.4529,394.813 C400.3857,394.7365 400.319,394.6604 400.2527,394.5847 " fill="none" id="BE-&gt;FE-1" style="stroke: #A80036; stroke-width: 1.0;"/><polygon fill="#A80036" points="400.2527,394.5847,403.174,403.9903,403.5473,398.3458,409.1918,398.7191,400.2527,394.5847" style="stroke: #A80036; stroke-width: 1.0;"/><text fill="#000000" font-family="Arial" font-size="13" lengthAdjust="spacingAndGlyphs" textLength="138" x="534" y="452.6269">token + refreshToken</text><!--MD5=[c84acc1e0ff5dab9d481bc9a32c73af7]
link FE to BE--><path d="M394.3757,394.9771 C394.3974,395.1776 394.4196,395.3815 394.4422,395.5887 C394.4874,396.0031 394.5341,396.4306 394.5826,396.8711 C394.6794,397.752 394.7828,398.6846 394.8926,399.6669 C395.7717,407.5259 397.0687,418.5721 398.793,431.8473 C402.2416,458.3978 407.3994,493.8644 414.3413,530.5813 C428.225,604.015 449.245,682.45 478,704.56 C522.04,738.43 687.82,742.93 728,704.56 C741.92,691.28 723.4,546.11 736,531.56 C739.6088,527.3925 743.8283,523.963 748.4537,521.1529 C749.61,520.4504 750.7917,519.7866 751.9956,519.1596 " fill="none" id="FE-&gt;BE-2" style="stroke: #A80036; stroke-width: 1.0;"/><polygon fill="#A80036" points="751.9956,519.1596,742.1656,519.7689,747.5609,521.4691,745.8607,526.8644,751.9956,519.1596" style="stroke: #A80036; stroke-width: 1.0;"/><text fill="#000000" font-family="Arial" font-size="13" lengthAdjust="spacingAndGlyphs" textLength="106" x="550" y="700.6269">POST /api/orders</text><!--MD5=[3e68418683ab4be64727e3935637485c]
link BE to FE--><path d="M751.5891,521.7519 C747.2812,522.1524 742.8665,522.5515 738.36,522.9458 C720.3338,524.523 700.8381,526.0234 680.835,527.2288 C600.8225,532.05 512.69,532.15 478,513.56 C448.585,497.805 427.655,466.795 413.9838,439.3625 C407.1481,425.6462 402.1272,412.8244 398.7677,403.2509 C397.9278,400.8576 397.1917,398.6672 396.5571,396.7167 C396.3985,396.2291 396.2462,395.7565 396.1002,395.2994 C396.0272,395.0708 395.9557,394.8462 395.8859,394.6255 " fill="none" id="BE-&gt;FE-2" style="stroke: #A80036; stroke-width: 1.0;"/><polygon fill="#A80036" points="395.8859,394.6255,394.7884,404.413,397.3948,399.3924,402.4154,401.9987,395.8859,394.6255" style="stroke: #A80036; stroke-width: 1.0;"/><text fill="#000000" font-family="Arial" font-size="13" lengthAdjust="spacingAndGlyphs" textLength="87" x="559.5" y="509.6269">order created</text><!--MD5=[5db83a24a60e31a9dbd5a8b9370333ed]
link BE to DB--><path d="M898.6342,485.3537 C898.8099,485.283 898.9858,485.2124 899.1617,485.1417 C899.5137,485.0004 899.8661,484.8592 900.2191,484.7181 C901.631,484.1535 903.051,483.5901 904.4772,483.0291 C915.8869,478.5406 927.6975,474.2 939,470.56 C1005.08,449.28 1033.26,473.1 1091,434.56 C1120.645,414.775 1144.2425,382.49 1160.5638,354.8025 C1168.7244,340.9588 1175.0659,328.2644 1179.4348,318.8566 C1180.5271,316.5046 1181.496,314.3581 1182.3393,312.4503 C1182.5501,311.9734 1182.753,311.5114 1182.9481,311.0648 C1182.9968,310.9532 1183.0451,310.8425 1183.0929,310.7328 " fill="none" id="BE-&gt;DB" style="stroke: #A80036; stroke-width: 1.0;"/><polygon fill="#A80036" points="1183.0929,310.7328,1175.8319,317.387,1181.0964,315.3169,1183.1665,320.5814,1183.0929,310.7328" style="stroke: #A80036; stroke-width: 1.0;"/><text fill="#000000" font-family="Arial" font-size="13" lengthAdjust="spacingAndGlyphs" textLength="142" x="944" y="415.6269">SELECT from price_list</text><text fill="#000000" font-family="Arial" font-size="13" lengthAdjust="spacingAndGlyphs" textLength="150" x="940" y="430.7597">(filter bandwidth_mbps)</text><!--MD5=[46ae5c838591a3d7e3b181466dfe1ff0]
link DB to BE--><path d="M1114.4978,287.5178 C1114.3297,287.4921 1114.1615,287.4664 1113.9934,287.4408 C1113.6571,287.3896 1113.3208,287.3387 1112.9844,287.2882 C1112.3116,287.1871 1111.6387,287.0874 1110.9657,286.9892 C1109.6198,286.7927 1108.274,286.602 1106.9301,286.4178 C1101.5542,285.6809 1096.2075,285.0475 1091,284.56 C1023.74,278.28 989.01,239.14 939,284.56 C925.28,297.02 937.1,350.07 931,367.56 C918.55,403.255 895.585,438.94 875.4713,465.9775 C870.4428,472.7369 865.5926,478.9558 861.1294,484.4993 C860.8504,484.8457 860.573,485.1896 860.2971,485.5307 " fill="none" id="DB-&gt;BE" style="stroke: #A80036; stroke-width: 1.0;"/><polygon fill="#A80036" points="860.2971,485.5307,869.0665,481.0476,863.4411,481.6428,862.8459,476.0174,860.2971,485.5307" style="stroke: #A80036; stroke-width: 1.0;"/><text fill="#000000" font-family="Arial" font-size="13" lengthAdjust="spacingAndGlyphs" textLength="118" x="956" y="259.6269">Pricing rows (USD)</text><!--MD5=[5db83a24a60e31a9dbd5a8b9370333ed]
link BE to DB--><path d="M1104.1429,485.5382 C1104.4213,485.2982 1104.6987,485.0571 1104.9753,484.815 C1109.4002,480.9404 1113.5954,476.7907 1117.5719,472.4184 C1125.5248,463.6738 1132.603,454.0391 1138.8955,443.9363 C1151.4803,423.7306 1160.9219,401.6525 1167.9312,381.0775 C1174.9406,360.5025 1179.5178,341.4306 1182.3739,327.2375 C1183.0879,323.6892 1183.6944,320.4459 1184.2044,317.5602 C1184.4594,316.1173 1184.6903,314.7639 1184.8984,313.5065 C1185.0025,312.8778 1185.1009,312.2731 1185.1938,311.6932 C1185.2402,311.4032 1185.2853,311.1195 1185.329,310.8421 C1185.3399,310.7727 1185.3508,310.7038 1185.3615,310.6352 " fill="none" id="BE-&gt;DB-1" style="stroke: #A80036; stroke-width: 1.0;"/><polygon fill="#A80036" points="1185.3615,310.6352,1180.0147,318.9063,1184.5864,315.5747,1187.918,320.1465,1185.3615,310.6352" style="stroke: #A80036; stroke-width: 1.0;"/><text fill="#000000" font-family="Arial" font-size="13" lengthAdjust="spacingAndGlyphs" textLength="84" x="973" y="491.6269">Validate user</text><!--MD5=[46ae5c838591a3d7e3b181466dfe1ff0]
link DB to BE--><path d="M1114.3152,310.0286 C1113.8965,310.0757 1113.4769,310.123 1113.0563,310.1705 C1112.2151,310.2655 1111.3702,310.3611 1110.5217,310.4575 C1096.9456,311.9991 1082.4569,313.7194 1067.86,315.575 C1009.4725,322.9975 949.355,332.585 939,341.56 C929.87,349.48 936.11,356.61 931,367.56 C915.01,401.815 891.99,437.4775 872.7325,464.8638 C867.9181,471.7103 863.3389,478.0396 859.1635,483.7003 C858.9025,484.0541 858.6431,484.4053 858.3854,484.7538 C858.2565,484.9281 858.128,485.1017 857.9999,485.2747 " fill="none" id="DB-&gt;BE-1" style="stroke: #A80036; stroke-width: 1.0;"/><polygon fill="#A80036" points="857.9999,485.2747,866.5706,480.4225,860.9756,481.2565,860.1416,475.6615,857.9999,485.2747" style="stroke: #A80036; stroke-width: 1.0;"/><text fill="#000000" font-family="Arial" font-size="13" lengthAdjust="spacingAndGlyphs" textLength="116" x="957" y="309.6269">user + token data</text><!--MD5=[5db83a24a60e31a9dbd5a8b9370333ed]
link BE to DB--><path d="M861.0423,485.1279 C861.1826,484.9565 861.3232,484.7845 861.4643,484.6118 C865.9772,479.085 870.8744,472.8819 875.94,466.135 C896.2025,439.1475 919.16,403.46 931,367.56 C935.5,353.93 928.54,248.4 939,238.56 C988.23,192.3 1039.22,195.18 1091,238.56 C1106.57,251.61 1084.91,268.93 1099,283.56 C1102.3963,287.0875 1106.2816,290.0347 1110.4842,292.491 C1111.5348,293.105 1112.6053,293.6884 1113.6929,294.2425 C1113.9648,294.381 1114.2378,294.5177 1114.5118,294.6526 C1114.6488,294.7201 1114.7861,294.787 1114.9236,294.8536 " fill="none" id="BE-&gt;DB-2" style="stroke: #A80036; stroke-width: 1.0;"/><polygon fill="#A80036" points="1114.9236,294.8536,1108.5645,287.3328,1110.4228,292.6757,1105.0799,294.534,1114.9236,294.8536" style="stroke: #A80036; stroke-width: 1.0;"/><text fill="#000000" font-family="Arial" font-size="13" lengthAdjust="spacingAndGlyphs" textLength="90" x="970" y="201.6269">INSERT orders</text><!--MD5=[46ae5c838591a3d7e3b181466dfe1ff0]
link DB to BE--><path d="M1177.1696,310.6403 C1177.0014,310.7814 1176.8311,310.924 1176.6589,311.068 C1171.1472,315.6766 1163.5931,321.7769 1154.7038,328.3963 C1136.925,341.635 1113.805,356.95 1091,366.56 C1027.39,393.38 998.77,364.01 939,398.56 C910.03,415.31 884.8675,443.19 866.7825,467.1863 C862.2613,473.1853 858.1823,478.9416 854.5969,484.2206 C854.3728,484.5506 854.1506,484.8787 853.9304,485.2048 " fill="none" id="DB-&gt;BE-2" style="stroke: #A80036; stroke-width: 1.0;"/><polygon fill="#A80036" points="853.9304,485.2048,862.2818,479.9843,856.7284,481.061,855.6517,475.5075,853.9304,485.2048" style="stroke: #A80036; stroke-width: 1.0;"/><text fill="#000000" font-family="Arial" font-size="13" lengthAdjust="spacingAndGlyphs" textLength="76" x="977" y="362.6269">order saved</text><!--MD5=[98b9289fa436b2cdd30eb7d9fae42478]
link Home Page to Results Page--><!--MD5=[03275075f58b125f2af51715ae7d8f3e]
link Home Page to Auth Context--><!--MD5=[64253f7d75bf4418f4ed6470e501b968]
link Auth Routes to Pricing Routes--><!--MD5=[a21d67eb74b04da4a439581673e25e2a]
link Auth Routes to Orders Routes--><!--MD5=[e09eff8f761056930e7191113889f79d]
link Orders Routes to Admin Routes--><!--MD5=[d085bceb2657897c4b255b98713de73f]
link users to price_list--><!--MD5=[537910198d4ed6b0d027286ce2e83ca8]
link price_list to quote_logs--><!--MD5=[4c502da0134721951f07b9613513a7bb]
link users to orders--><!--MD5=[e087d60ffecaaf04a8e475f3ab6d5d80]
link orders to buildings--><!--MD5=[fa2d8ad292010fcd6d6edad3b2ca83cc]
link Results Page to Auth Routes--><!--MD5=[836778b0071a029b6e57996e21f88a41]
link Auth Context to users--><!--MD5=[36b79c0c3dbbee82b5f7b711f77ae310]
@startuml
skinparam componentStyle rectangle
skinparam shadowing false
skinparam defaultFontName Arial

left to right direction

actor User as user

rectangle "Frontend (Vite + React)" as FE {
  [Home Page]
  [Results Page]
  [Auth Context]
}

rectangle "Backend (Node.js + Express)" as BE {
  [Auth Routes]
  [Pricing Routes]
  [Orders Routes]
  [Admin Routes]
}

database "PostgreSQL" as DB {
  [users]
  [price_list]
  [quote_logs]
  [orders]
  [buildings]
}

cloud "Nginx" as NGINX

user - -> FE : Search location + input bandwidth
FE - -> NGINX : HTTPS request
NGINX - -> BE : /api/*

FE - -> BE : GET /api/pricing/public/pricing\n?service_type&zone&bandwidth_mbps
BE - -> DB : SELECT from price_list\n(filter bandwidth_mbps)
DB - -> BE : Pricing rows (USD)
BE - -> FE : JSON pricing

FE - -> BE : POST /api/auth/login
BE - -> DB : Validate user
DB - -> BE : user + token data
BE - -> FE : token + refreshToken

FE - -> BE : POST /api/orders
BE - -> DB : INSERT orders
DB - -> BE : order saved
BE - -> FE : order created

@enduml

PlantUML version 1.2020.02(Sun Mar 01 10:22:07 UTC 2020)
(GPL source distribution)
Java Runtime: OpenJDK Runtime Environment
JVM: OpenJDK 64-Bit Server VM
Java Version: 11.0.30+7-post-Ubuntu-1ubuntu122.04
Operating System: Linux
Default Encoding: UTF-8
Language: en
Country: US
--></g></svg>